<svg version="1" xmlns="http://www.w3.org/2000/svg" width="245.333" height="245.333" viewBox="0 0 184.000000 184.000000"><path d="M76.5 11.3C68.1 14.2 64 16.1 64 17.1c0 .4-1.1 1-2.6 1.3-3.9 1-16.7 14.3-19.7 20.6-5.1 10.5-5.9 14.1-6.4 27.3-.5 11.4-.3 13.4 1.7 19.5 1.2 3.7 3.1 7.9 4.1 9.4 1.1 1.4 1.9 2.9 1.9 3.3 0 .8 2.3 3.5 8.2 9.7l3.7 4-2.3 3.7c-4.9 7.7-9.6 20.1-9.6 25.4 0 1.8-.9 4.3-2 5.7-4.6 5.9-.3 15 7 15 3.7 0 3.7.1 4.4 4.6.9 7.1.9 7.3-2.9 8-10.1 1.9-1 2.4 41 2.4 30.2 0 45.4-.3 45-1-.3-.6-1.5-1-2.6-1-1.5 0-1.9-.7-1.9-3.5 0-1.9.5-3.5 1.1-3.5.5 0 .9-.8.8-1.8-.3-3.8-.1-3.8 12.1-3.4l12 .4v-13.7c0-12 .2-14 1.8-15.1 1.4-1.1 1.5-1.6.4-3.1-1.2-1.8-2.1-3.6-2.7-5.9-.5-1.6-12-2.7-14.5-1.4-1.4.8-2 .8-2 0 0-.7-.8-.9-1.9-.5-1.5.4-2.5-.5-4.7-4.2-1.5-2.6-3.2-5.1-3.8-5.5-1.1-.7-.4-1.6 7.6-10.3 2.1-2.2 3.8-4.4 3.8-4.8 0-.5.8-2.1 1.8-3.5 2.2-3.2 5.5-12.5 7.3-20.5 2.6-11.9-2.1-30.6-10.4-41.5-2.6-3.4-9.4-10.7-12.1-12.9-2.8-2.4-15.1-8.3-17.1-8.3-1.2 0-2.6-.5-3.2-1.1-.7-.7-5.9-1.3-12.5-1.6-9.9-.3-12.2-.1-18.3 2z"/></svg>