<?xml version="1.0" encoding="UTF-8" standalone="no"?><!DOCTYPE svg PUBLIC "-//W3C//DTD SVG 1.1//EN" "http://www.w3.org/Graphics/SVG/1.1/DTD/svg11.dtd"><svg width="100%" height="100%" viewBox="0 0 512 512" version="1.1" xmlns="http://www.w3.org/2000/svg" xmlns:xlink="http://www.w3.org/1999/xlink" xml:space="preserve" xmlns:serif="http://www.serif.com/" style="fill-rule:evenodd;clip-rule:evenodd;stroke-linejoin:round;stroke-miterlimit:1.41421;"><g id="black"></g><path id="Pinboard" d="M399.808,200.462c-27.435,26.478 -53.855,51.965 -80.531,77.711c60.67,71.173 120.828,141.759 180.975,212.335c-0.31,0.34 -0.62,0.67 -0.919,1.021c-73.277,-57.842 -146.564,-115.695 -220.781,-174.279c-26.494,25.704 -52.925,51.346 -79.323,76.968c0,-5.661 -0.342,-11.28 0.064,-16.837c1.271,-17.239 2.906,-34.448 4.145,-51.677c0.118,-1.722 -1.121,-3.876 -2.382,-5.289c-27.456,-30.705 -55.008,-61.317 -82.539,-91.96c-14.252,-15.867 -28.546,-31.694 -42.744,-47.603c-3.344,-3.743 -6.869,-5.877 -12.499,-5.733c-17.286,0.433 -34.582,0.165 -51.526,0.165c53.459,-51.645 106.491,-102.878 160.26,-154.813c0,15.806 0.353,31.994 -0.171,48.151c-0.224,6.722 2.329,10.805 7.489,15.032c24.561,20.116 48.748,40.634 73.074,61.018c23.353,19.569 46.344,39.562 70.36,58.358c4.081,3.196 12.499,1.938 18.856,1.587c19.027,-1.062 38.032,-2.68 58.192,-4.155Z"/><path d="M409.472,665.472l-307.104,0l0,-51.104l307.104,0l0,51.104Zm0,76.895l-307.104,0l0,-51.263l307.104,0l0,51.263Zm0,76.736l-307.104,0l0,-51.103l307.104,0l0,51.103Zm102.272,-255.999c0,-28.128 -22.881,-51.104 -51.008,-51.104l-409.632,0c-28.128,0 -51.104,22.976 -51.104,51.104l0,307.263c0,28.129 22.976,51.105 51.104,51.105l358.368,0l102.528,102.528l-0.256,-460.896Z" style="fill-rule:nonzero;"/></svg>