<?xml version="1.0" encoding="UTF-8" standalone="no"?><!DOCTYPE svg PUBLIC "-//W3C//DTD SVG 1.1//EN" "http://www.w3.org/Graphics/SVG/1.1/DTD/svg11.dtd"><svg width="100%" height="100%" viewBox="0 0 512 512" version="1.1" xmlns="http://www.w3.org/2000/svg" xmlns:xlink="http://www.w3.org/1999/xlink" xml:space="preserve" xmlns:serif="http://www.serif.com/" style="fill-rule:evenodd;clip-rule:evenodd;stroke-linejoin:round;stroke-miterlimit:1.41421;"><path id="Post" d="M372.341,177.131l-232.803,0l0,-38.739l232.803,0l0,38.739Zm0,58.291l-232.803,0l0,-38.86l232.803,0l0,38.86Zm0,58.17l-232.803,0l0,-38.738l232.803,0l0,38.738Zm77.528,-194.061c0,-21.323 -17.346,-38.74 -38.667,-38.74l-310.525,0c-21.322,0 -38.74,17.417 -38.74,38.74l0,232.922c0,21.324 17.418,38.741 38.74,38.741l271.664,0l77.722,77.722l-0.194,-349.385Z" style="fill-rule:nonzero;"/></svg>